<svg xmlns:xlink="http://www.w3.org/1999/xlink" viewBox="0 0 1024 1024" version="1.1" xmlns="http://www.w3.org/2000/svg"   class="tm_dY" style="width:0.28rem;height:0.28rem" alt="Categorías" width="4"  height="4" ><path fill="#000000" d="M831 234.8c20.2 0 36.6 16.4 36.6 36.6 0 20.2-16.4 36.6-36.6 36.6l-438.9 0c-20.2 0-36.6-16.4-36.5-36.6 0-20.2 16.4-36.6 36.5-36.6l438.9 0z m-618.9 83.4c26.3 0 47.5-21.3 47.6-47.6 0-26.3-21.3-47.5-47.6-47.5-26.3 0-47.5 21.3-47.5 47.5 0 26.3 21.3 47.5 47.5 47.6z m618.9 399.4c20.2 0 36.6 16.4 36.6 36.5 0 20.2-16.4 36.6-36.6 36.6l-438.9 0c-20.2 0-36.6-16.4-36.5-36.6 0-20.2 16.4-36.6 36.5-36.5l438.9 0z m-618.9 83.3c26.3 0 47.5-21.3 47.6-47.5 0-26.3-21.3-47.5-47.6-47.6-26.3 0-47.5 21.3-47.5 47.6 0 26.3 21.3 47.5 47.5 47.5z m618.9-324.7c20.2 0 36.6 16.4 36.6 36.6 0 20.2-16.4 36.6-36.6 36.5l-438.9 0c-20.2 0-36.6-16.4-36.5-36.5 0-20.2 16.4-36.6 36.5-36.6l438.9 0z m-618.9 83.3c26.3 0 47.5-21.3 47.6-47.5 0-26.3-21.3-47.5-47.6-47.5-26.3 0-47.5 21.3-47.5 47.5 0 26.3 21.3 47.5 47.5 47.5z"></path></svg>