<svg xmlns:xlink="http://www.w3.org/1999/xlink" viewBox="0 0 1024 1024" version="1.1" xmlns="http://www.w3.org/2000/svg"   class="tm_dY" style="width:0.28rem;height:0.28rem" alt="Carrito" width="10"  height="10" ><path fill="#000000" d="M384 775.3c30.3 0 54.9 24.6 54.9 54.9 0 30.3-24.6 54.9-54.9 54.8-30.3 0-54.9-24.6-54.9-54.8 0-30.3 24.6-54.9 54.9-54.9z m365.7 0c30.3 0 54.9 24.6 54.9 54.9 0 30.3-24.6 54.9-54.9 54.8-30.3 0-54.9-24.6-54.8-54.8 0-30.3 24.6-54.9 54.8-54.9z m-636.9-636.8l4.1 0.5 83.3 16c43.5 8.4 77.2 42.8 84.6 86.5l3 18.1 454.4 0.1c80.8 0 146.3 65.5 146.2 146.2 0 7.8-0.6 15.6-1.8 23.3l-26.7 165.3c-11.1 69.1-70.8 119.9-140.8 120l-310 0c-71.3 0-131.7-52.7-141.3-123.4l-39.8-291.1c-0.1-0.6-0.3-1.2-0.4-1.8l-7.7-45.7c-2.8-16.5-15.6-29.6-32.1-32.8l-83.4-16c-17.9-3.4-29.5-20.7-26.1-38.6 2.9-15.1 15.7-25.8 30.4-26.6l4.1 0z m629.4 187l-444.3 0 35.1 256.7c5.2 38 37.7 66.4 76.1 66.4l310 0c37.7 0 69.8-27.4 75.8-64.5l26.7-165.3c0.7-4.2 1-8.5 1-12.9 0-44.4-36-80.5-80.4-80.4z"></path></svg>