<svg xmlns="http://www.w3.org/2000/svg" xmlns:xlink="http://www.w3.org/1999/xlink" width="133" height="30" xmlns:v="https://vecta.io/nano"><g fill-rule="evenodd"><g fill="#0d3878" fill-rule="nonzero"><path d="M0 8.502c0 5.239 1.789 8.502 6.675 8.502 1.491 0 2.821-.253 4.542-1.08l.229-2.482c-1.606.965-3.211 1.31-4.771 1.31-3.051 0-3.853-2.413-3.853-6.25s.757-6.25 3.899-6.25c1.491 0 2.89.345 4.496 1.172V1.08C9.496.253 8.212 0 6.721 0 1.72 0 0 3.263 0 8.502z"/><use xlink:href="#B"/><path d="M27.616 5.285h-2.477v11.49h2.592V8.02c.826-.506 1.514-.873 2.477-.873 1.078 0 1.651.597 1.651 1.723v7.905h2.615V8.112c.803-.529 1.514-.965 2.454-.965 1.078 0 1.651.597 1.651 1.723v7.905h2.615v-8.41c0-2.229-1.422-3.309-3.257-3.309-.757 0-1.583.207-2.385.643l-1.284 1.333h-.046c-.436-1.333-1.537-1.976-2.936-1.976-.757 0-1.583.207-2.385.643l-1.124 1.126h-.046l-.115-1.54zm18.556 0h-2.477V21.83h2.592V7.836c.55-.391 1.307-.896 2.271-.896 1.674 0 2.592 1.149 2.592 4.09 0 2.643-.734 4.205-2.638 4.205a3.1 3.1 0 0 1-1.537-.368v1.586a4.53 4.53 0 0 0 2.202.552c2.821 0 4.656-2.183 4.656-5.975 0-3.677-1.491-5.975-4.129-5.975-.734 0-1.422.184-2.018.529l-1.399 1.08-.115-1.379zm12.202 0h-2.615v8.411c0 2.229 1.422 3.309 3.257 3.309.757 0 1.583-.207 2.385-.643l1.124-1.126h.046l.115 1.54h2.477V5.285h-2.592v8.755c-.803.506-1.583.873-2.523.873-1.101 0-1.674-.597-1.674-1.723V5.285zm8.441 1.839h1.262v6.986c0 2.114 1.032 2.895 3.119 2.895.505 0 1.514-.138 2.11-.391V14.73c-.459.184-1.032.253-1.399.253-.872 0-1.239-.368-1.239-1.218V7.124h2.569V5.285h-2.569V2.826h-.986l-1.606 2.459-1.262.735v1.103zM77.48 5.285h-2.477v11.49h2.592V8.548c.688-.712 1.491-1.126 2.454-1.126a3.98 3.98 0 0 1 1.032.138l.849-2.321a4.78 4.78 0 0 0-1.284-.184c-.872 0-1.468.322-1.973.689l-1.032 1.54h-.046l-.115-1.999z"/><use xlink:href="#C"/><path d="M96.449 6.664V.23h-2.592v16.66h.94l.734-.896c.826.574 2.064 1.011 3.395 1.011 3.165 0 5.069-2.183 5.069-5.975 0-3.677-1.491-5.975-4.129-5.975-.734 0-1.422.184-2.018.529l-1.399 1.08zm0 1.172c.55-.391 1.307-.896 2.271-.896 1.674 0 2.592 1.149 2.592 4.09 0 2.643-.665 4.343-2.707 4.343-.895 0-1.56-.253-2.156-.597v-6.94z"/><use xlink:href="#C" x="23.074"/><path d="M116.839 2.229c0 .781.573 1.402 1.514 1.402.917 0 1.514-.62 1.514-1.402s-.596-1.402-1.514-1.402c-.94 0-1.514.62-1.514 1.402zm2.844 3.056h-2.592v11.329c0 1.999-.275 2.666-1.858 3.654l1.055 1.563c2.844-1.287 3.395-3.033 3.395-5.216V5.285z"/><use xlink:href="#B" x="109.041"/></g><path d="M69.457 23.212s-1.287-.554-1.382.969c-.138 1.315 1.245 1.814 1.727 2.007 7.6 3.045 35.235 8.725 62.274-7.337.276-.138.069-.554-.233-.342-23.075 12.182-54.096 8.718-62.386 4.703z" fill="#ff6f00"/></g><defs ><path id="B" d="M17.868 17.005c3.509 0 5.276-2.252 5.276-5.975s-1.766-5.975-5.276-5.975c-3.486 0-5.253 2.252-5.253 5.975s1.766 5.975 5.253 5.975zm0-10.18c1.95 0 2.592 1.563 2.592 4.205 0 2.597-.596 4.205-2.592 4.205-1.973 0-2.592-1.609-2.592-4.205 0-2.643.665-4.205 2.592-4.205z"/><path id="C" d="M88.765 15.258l.115 1.517h2.5V8.273c0-2.068-1.72-3.217-4.243-3.217-1.17 0-2.225.161-3.486.529l-.688 1.861.161.115c1.284-.529 2.225-.712 3.441-.712 1.858 0 2.202 1.08 2.202 2.114v1.149l-3.441.735c-1.353.276-3.188 1.011-3.188 3.217 0 1.746 1.284 2.941 3.142 2.941a3.8 3.8 0 0 0 2.064-.597l1.422-1.149zm0-3.884v2.551c-.596.529-1.33 1.126-2.363 1.126-.849 0-1.537-.506-1.537-1.471 0-.942.459-1.241 1.445-1.517l2.454-.689z"/></defs></svg>