<svg xmlns:xlink="http://www.w3.org/1999/xlink" viewBox="0 0 1024 1024" version="1.1" xmlns="http://www.w3.org/2000/svg"   class="tm_xF" aria-hidden="true" width="12"  height="12" ><path d="M458.1 118.6c211.3 0 382.7 171.3 382.7 382.6 0 84.8-27.6 163.2-74.3 226.6l144.1 126.4c13.4 11.8 14.8 32.2 3 45.6-10.5 11.9-27.8 14.3-40.9 6.4l-4.8-3.4-144-126.3c-68.8 66.5-162.5 107.4-265.8 107.4-211.3 0-382.7-171.3-382.6-382.7 0-211.3 171.3-382.7 382.6-382.6z m0 64.6c-175.6 0-318 142.4-318 318 0 175.6 142.4 318 318 318 175.6 0 318-142.4 318-318 0-175.6-142.4-318-318-318z" fill="#666666"></path></svg>