<svg xmlns:xlink="http://www.w3.org/1999/xlink" viewBox="0 0 1024 1024" version="1.1" xmlns="http://www.w3.org/2000/svg"   class="_2UEx64Du" alt="common_successful" aria-label="Buscar " width="3"  height="3" ><path d="M486.4 102.4c212.1 0 384 171.9 384 384 0 78.4-23.5 151.3-63.8 212l147.5 132.4c21 18.9 22.8 51.3 3.9 72.3-17.4 19.4-46.4 22.4-67.2 7.9l-5.1-4-146.5-131.5c-67.5 59.1-156 94.9-252.8 94.9-212.1 0-384-171.9-384-384 0-212.1 171.9-384 384-384z m0 102.4c-155.5 0-281.6 126.1-281.6 281.6 0 155.5 126.1 281.6 281.6 281.6 155.5 0 281.6-126.1 281.6-281.6 0-155.5-126.1-281.6-281.6-281.6z" fill="#FFFFFF"></path></svg>