<svg xmlns:xlink="http://www.w3.org/1999/xlink" class="D1oZQdPu _1qUi_3xF" style="fill:#0A8800" alt="" xmlns="http://www.w3.org/2000/svg" version="1.1" viewBox="0 0 1024 1024"   fill="#0a8800" aria-hidden="true" width="8"  height="8" ><path d="M790.3 731.9c54.9 0 99.4 44.5 99.4 99.3 0 54.9-44.5 99.4-99.4 99.4-54.9 0-99.4-44.5-99.4-99.4 0-54.9 44.5-99.4 99.4-99.3z m-469.8 0c54.9 0 99.4 44.5 99.3 99.3 0 54.9-44.5 99.4-99.3 99.4-54.9 0-99.4-44.5-99.4-99.4 0-54.9 44.5-99.4 99.4-99.3z m302.4-574.5c59.5-0.6 108.3 47.1 109 106.6l0 12.6 68.4 0.1c118.4 0.2 214.5 96 215.2 214.4l1.3 245.5c0.2 39.9-32 72.5-71.8 72.7l-5.3 0c-9.3-74.2-72.7-131.6-149.4-131.7-74.6 0-136.6 54.3-148.5 125.6l-173 1.9c-12.4-70.7-74.1-124.4-148.3-124.4-74.1 0-135.7 53.5-148.3 123.9-29-9.1-50.2-36-50.5-68.1l0-171.7-70.5 0.4c-28.1 0.2-51-22.5-51.1-50.6 0-28.6 23-51.5 51.2-51.5l75 0 169.2-0.3c43.1-0.1 78-35 78-78.3-0.1-43.1-35.1-77.9-78.2-77.8l-169.1 0.3c-1.5 0-3 0-4.5 0.1l0-72.9c0-39.6 31.9-71.9 71.5-72.3l429.7-4.5z m189.7 206.9l-73.9 0.8-0.6 144.6 199.7-0.8 0-20.9 0-0.9c-0.7-68.5-56.7-123.4-125.2-122.8z m-517.2-15.5c19.8 0 35.9 16 35.9 35.8 0 19.9-16.1 36-35.9 36l-169.1 0.4c-1.6 0-3.1-0.1-4.6-0.3l0-0.1-1.3-0.1c-15.1-2.4-27.1-14.4-29.6-29.5l-0.4-5.8c0-17.9 13-32.8 30-35.6l1.3-0.1 4.6-0.3 169.1-0.4z" fill="#0A8800"></path></svg>