<svg xmlns:xlink="http://www.w3.org/1999/xlink" xmlns="http://www.w3.org/2000/svg" version="1.1" viewBox="0 0 1024 1024"   fill="currentColor" class="_3Dn-oZRs" width="1"  height="1" ><path d="M512.1 2.6c137.2 0 248.5 111.3 248.4 248.4l0 68.7 42.3 0.1c61.6 0 112 47.8 116.1 108.3l0.3 8 0 422.9c0 64.2-52.1 116.3-116.4 116.4l-581.5 0c-64.2 0-116.3-52.1-116.3-116.4l0-422.9c0-64.2 52.1-116.3 116.3-116.3l42.2-0.1 0.1-68.7c0-133.5 105.3-242.5 237.4-248.2l11.1-0.2z m290.7 391.2l-581.5 0c-23.4 0-42.3 18.9-42.3 42.3l0 422.9c0 23.4 18.9 42.3 42.3 42.3l581.5 0c23.4 0 42.3-18.9 42.3-42.3l0-422.9c0-23.4-18.9-42.3-42.3-42.3z m-290.7 121.6c21.9 0 39.7 17.8 39.6 39.6l0 185.1c0 21.9-17.8 39.7-39.6 39.6-21.9 0-39.7-17.8-39.7-39.6l0-185.1c0-21.9 17.8-39.7 39.7-39.6z m0-438.8c-96.4 0-174.5 78.1-174.5 174.4l0 68.8 348.9 0 0-68.8c0-93-72.8-169.1-164.5-174.1l-9.9-0.3z" fill="#0CAB00"></path></svg>