<svg xmlns:xlink="http://www.w3.org/1999/xlink" class="_3sixO3U5" alt="" xmlns="http://www.w3.org/2000/svg" version="1.1" viewBox="0 0 1024 1024"   fill="#000000" width="6"  height="6" ><path d="M512 30.7c138.6 0 250.9 112.3 250.9 250.9l0 61.4 35.8 0c59.5 0 108.2 46.1 112.4 104.6l0.3 8.1 0 419.8c0 62.2-50.4 112.6-112.7 112.7l-573.4 0c-62.2 0-112.6-50.4-112.7-112.7l0-419.8c0-62.2 50.4-112.6 112.7-112.7l35.8 0 0-61.4c0-134.8 106.3-244.8 239.7-250.6l11.2-0.3z m0 506.9c-22.6 0-41 18.3-41 41l0 174c0 22.6 18.3 41 41 41 22.6 0 41-18.3 41-41l0-174c0-22.6-18.3-41-41-41z m0-414.7c-87.7 0-158.7 71.1-158.7 158.7l0 56.3 317.4 0 0-56.3c0-84.6-66.2-153.8-149.7-158.5l-9-0.2z" fill="#0A8800"></path></svg>