<svg xmlns:xlink="http://www.w3.org/1999/xlink" viewBox="0 0 1024 1024" version="1.1" xmlns="http://www.w3.org/2000/svg"   class="ncBrJe8U _2h_CUm22 cT2jcDoE" alt="" aria-label="" fill="#222222" aria-hidden="true" width="8"  height="8" ><title fill="#222222">Venta de Mitad de Año</title><path d="M512 16.1c94.9-7.1 179.8 58.5 196.8 152.1l0 51.2 174 3.7c0 0 32.9 5.9 32.9 32.2l35.2 647.3c-7 52-50 91.7-102.4 94.3l-670 0c-55.7-5-99.9-48.9-105.4-104.6l35.9-645.8c4.5-16.7 20-28 37.3-27.1l174.8 0 0-52.6c17.4-90.7 98.7-154.9 190.9-150.7z m153.6 596.1c-62.2 0-100.2 46.1-100.2 119.2l0.2 9.4c3.1 67.7 40.5 109.8 100 109.9 62.2 0 100.2-46.1 100.2-119.3 0-73.1-38-119.2-100.2-119.2z m29.3-237.7l-58.6 0-299.8 471 58.5 0 299.9-471z m-29.3 283.8c29.3 0 46.8 23.4 46.8 73.1l-0.2 8.3c-2 40.4-18.5 64.8-46.6 64.9-30 0-46.8-25.6-46.8-73.2l0.2-8.4c2-40.9 18.5-64.7 46.6-64.7z m-301.3-286.7c-62.9 0-100.9 46.1-101 119.2l0.2 9.5c3.2 68.3 41.3 109.8 100.8 109.7 62.2 0 100.2-46.8 100.2-119.9l-0.3-9.4c-3.1-67.6-39.8-109.1-99.9-109.1z m0 46c29.3 0 46.1 24.9 46 73.2l-0.2 8.6c-1.9 42-17.8 64.5-45.8 64.5-30 0-46.8-25.6-46.9-73.1l0.2-8.4c2-40.9 19.2-64.7 46.7-64.8z m157.3-332l-9.6 0.7c-56.6-1-105.3 39.9-114.1 95.8l0 37.3 233.3 0 0-36.5c-2.6-28.8-16.7-55.3-39.1-73.6-22.5-18.2-51.4-26.5-80.1-23z" fill="#222222"></path></svg>